<?xml version="1.0" encoding="utf-8"?>
<!-- Generator: Adobe Illustrator 16.0.0, SVG Export Plug-In . SVG Version: 6.00 Build 0)  -->
<!DOCTYPE svg PUBLIC "-//W3C//DTD SVG 1.1//EN" "http://www.w3.org/Graphics/SVG/1.1/DTD/svg11.dtd">
<svg version="1.1" id="Layer_1" xmlns="http://www.w3.org/2000/svg" xmlns:xlink="http://www.w3.org/1999/xlink" x="0px" y="0px"
	 width="323.783px" height="393.478px" viewBox="0 0 323.783 393.478" enable-background="new 0 0 323.783 393.478"
	 xml:space="preserve">
<g id="NlzRC0.tif">
	<g>
		<path opacity="0.15" fill-rule="evenodd" clip-rule="evenodd" d="M0.3,92.977c4.863-2.805,9.62-5.539,14.366-8.291
			c4.917-2.851,9.805-5.754,14.741-8.571c3.388-1.934,6.766-3.884,10.137-5.849c5.962-3.476,11.96-6.89,17.938-10.34
			c3.16-1.824,6.261-3.757,9.474-5.48c3.78-2.027,7.402-4.32,11.157-6.389c4.275-2.356,8.433-4.922,12.654-7.376
			c2.853-1.659,5.731-3.274,8.591-4.922c3.883-2.238,7.762-4.483,11.637-6.736c2.471-1.437,4.864-3.027,7.418-4.295
			c2.007-0.997,3.771-2.375,5.76-3.354c5.013-2.466,9.59-5.674,14.47-8.365c1.898-1.047,3.767-2.15,5.646-3.23
			c3.11-1.787,6.156-3.701,9.35-5.324c2.459-1.249,4.629-2.954,7.104-4.167c0.781-0.383,1.313-0.398,2.051,0.033
			c4.979,2.916,9.988,5.781,14.98,8.673c4.995,2.893,9.979,5.806,14.975,8.697c4.031,2.333,8.078,4.638,12.11,6.969
			c5.174,2.991,10.335,6.004,15.511,8.991c4.21,2.43,8.443,4.821,12.651,7.255c7.626,4.41,15.234,8.851,22.863,13.255
			c6.357,3.671,12.742,7.295,19.101,10.965c5.438,3.138,10.85,6.322,16.285,9.466c4.338,2.509,8.697,4.981,13.038,7.485
			c5.528,3.188,11.046,6.394,16.57,9.588c0.568,0.329,1.169,0.605,1.728,0.95c0.566,0.35,0.549,0.656-0.037,0.994
			c-1.221,0.703-2.442,1.406-3.666,2.096c-3.898,2.2-7.728,4.518-11.621,6.721c-8.328,4.712-16.587,9.542-24.883,14.31
			c-10.295,5.917-20.567,11.873-30.856,17.802c-1.554,0.896-3.189,1.638-4.716,2.592c-6.42,4.012-13.06,7.647-19.599,11.456
			c-4.086,2.38-8.204,4.705-12.294,7.079c-4.18,2.428-8.299,4.965-12.527,7.304c-2.994,1.656-5.93,3.411-8.913,5.083
			c-3.558,1.994-7.033,4.135-10.563,6.18c-2.96,1.714-5.957,3.363-8.919,5.071c-3.051,1.76-6.076,3.564-9.122,5.332
			c-0.784,0.455-1.627,0.79-2.354,1.366c-0.44,0.351-1.02,0.225-1.553-0.001c-0.983-0.416-1.733-1.182-2.643-1.706
			c-15.912-9.192-31.823-18.386-47.734-27.579c-11.883-6.866-23.766-13.731-35.649-20.597c-11.284-6.52-22.542-13.086-33.874-19.522
			c-2.505-1.423-5.046-2.798-7.555-4.22c-3.502-1.985-6.936-4.089-10.42-6.106c-3.049-1.766-6.154-3.438-9.185-5.234
			c-2.225-1.319-4.518-2.519-6.703-3.91c-1.709-1.088-3.523-2.016-5.312-2.976C1.37,93.86,0.9,93.503,0.3,92.977z"/>
		<g>
			<path opacity="0.25" fill-rule="evenodd" clip-rule="evenodd" d="M323.759,101.031c0-0.485,0.139-1.005-0.244-1.559
				c-0.568,0.293-1.143,0.555-1.683,0.874c-5.233,3.092-10.484,6.155-15.729,9.225c-20.94,12.254-41.938,24.409-62.941,36.555
				c-8.673,5.015-17.236,10.218-26.062,14.967c-2.564,1.38-5.034,2.937-7.552,4.404c-5.115,2.981-10.229,5.968-15.354,8.933
				c-5.761,3.333-11.54,6.635-17.299,9.972c-3.288,1.906-6.49,3.97-9.854,5.729c-1.362,0.712-1.516,1.562-1.515,2.859
				c0.034,54.058,0.042,108.115,0.057,162.174c0,0.56,0.042,1.118,0.064,1.678c-0.021,0.305-0.06,0.609-0.06,0.914
				c-0.002,11.575-0.002,23.149,0.005,34.725c0,0.291-0.09,0.604,0.194,0.987c0.542-0.286,1.115-0.568,1.669-0.885
				c1.007-0.575,1.997-1.179,3.002-1.758c2.135-1.229,4.282-2.437,6.411-3.674c2.96-1.72,5.902-3.468,8.862-5.186
				c2.128-1.234,4.283-2.424,6.408-3.662c2.826-1.646,5.632-3.327,8.452-4.981c2.383-1.398,4.771-2.786,7.163-4.168
				c2.878-1.664,5.762-3.317,8.644-4.975c2.134-1.228,4.273-2.446,6.401-3.683c2.961-1.72,5.911-3.459,8.873-5.178
				c2.13-1.235,4.277-2.44,6.406-3.678c2.958-1.719,5.905-3.455,8.857-5.182c2.212-1.293,4.422-2.59,6.638-3.875
				c2.875-1.667,5.757-3.322,8.633-4.987c2.218-1.285,4.429-2.581,6.646-3.867c2.83-1.643,5.652-3.299,8.499-4.912
				c2.141-1.214,4.293-2.416,6.405-3.67c2.855-1.695,5.737-3.346,8.591-5.044c2.765-1.646,5.6-3.174,8.382-4.791
				c3.479-2.023,6.93-4.095,10.403-6.127c3.733-2.185,7.438-4.424,11.246-6.473c1.1-0.593,1.367-1.207,1.363-2.343
				c-0.035-10.963-0.019-21.927-0.021-32.89c0-0.509-0.034-1.018-0.053-1.526c0.02-0.406,0.057-0.813,0.057-1.22
				C323.74,210.168,323.753,155.6,323.759,101.031z"/>
			<path opacity="0.25" fill-rule="evenodd" clip-rule="evenodd" d="M158.275,193.648c0.003-1.978-0.702-2.938-2.295-3.855
				c-16.291-9.392-32.543-18.849-48.81-28.283c-27.254-15.805-54.511-31.604-81.765-47.41c-8.141-4.722-16.271-9.462-24.416-14.179
				C0.728,99.77,0.442,99.407,0,99.742c0,0.527,0,1.087,0,1.647c0.011,53.281,0.022,106.562,0.036,159.843
				c0,0.559,0.042,1.118,0.065,1.677c-0.021,0.56-0.06,1.119-0.06,1.679C0.039,276.519,0.071,288.45,0,300.38
				c-0.008,1.414,0.56,2.063,1.673,2.645c1.715,0.896,3.382,1.887,5.054,2.862c2.023,1.181,4.026,2.395,6.046,3.579
				c2.44,1.43,4.89,2.845,7.337,4.263c1.468,0.851,2.937,1.7,4.409,2.542c2.326,1.33,4.664,2.638,6.979,3.983
				c2.761,1.604,5.499,3.244,8.255,4.855c2.399,1.402,4.805,2.792,7.214,4.178c2.811,1.616,5.632,3.216,8.442,4.833
				c2.237,1.287,4.471,2.583,6.697,3.889c2.02,1.185,4.023,2.397,6.043,3.582c2.441,1.43,4.891,2.845,7.339,4.264
				c1.472,0.853,2.947,1.7,4.421,2.551c2.363,1.363,4.728,2.723,7.087,4.092c2.114,1.227,4.221,2.465,6.333,3.696
				c2.318,1.352,4.636,2.702,6.957,4.049c1.467,0.852,2.936,1.7,4.408,2.542c2.325,1.33,4.663,2.64,6.979,3.985
				c2.756,1.601,5.487,3.247,8.246,4.845c2.318,1.343,4.671,2.625,6.988,3.972c2.155,1.253,4.239,2.636,6.433,3.815
				c2.234,1.201,4.366,2.572,6.61,3.757c2.331,1.23,4.544,2.684,6.818,4.022c2.996,1.764,5.994,3.526,9.012,5.255
				c0.711,0.407,1.431,0.85,2.25,1.042c0.223-0.581,0.14-1.096,0.14-1.601c0.006-12.237,0.006-24.474,0.004-36.711
				c0-0.457-0.033-0.915-0.052-1.373c0.021-0.661,0.058-1.322,0.059-1.984C158.196,299.089,158.193,246.368,158.275,193.648z"/>
		</g>
	</g>
</g>
</svg>
